<svg xmlns="http://www.w3.org/2000/svg" xmlns:xlink="http://www.w3.org/1999/xlink" viewBox="0 0 837 197"><defs><style>.a{fill:#11151b;}.b{fill:url(#a);}.c{fill:url(#b);}.d{fill:#778589;}.e{fill:#889399;}.f{fill:#69757d;}.g{fill:url(#c);}.h{fill:url(#d);}</style><radialGradient id="a" cx="146.93" cy="98.5" r="97.22" gradientUnits="userSpaceOnUse"><stop offset="0.91" stop-color="#fff"/><stop offset="1" stop-color="#778589"/></radialGradient><radialGradient id="b" cx="146.93" cy="98.5" r="70.01" gradientUnits="userSpaceOnUse"><stop offset="0.91" stop-color="#778589"/><stop offset="1" stop-color="#818e92"/></radialGradient><linearGradient id="c" x1="117.36" y1="65.06" x2="169.1" y2="65.06" gradientUnits="userSpaceOnUse"><stop offset="0" stop-color="#768187"/><stop offset="1" stop-color="#a7b1b3"/></linearGradient><linearGradient id="d" x1="109.19" y1="107.29" x2="187.32" y2="107.29" xlink:href="#c"/></defs><title>LOGO</title><path class="a" d="M87.1,142l-7.4,11.7,13-5.1,3.4,4-13,10.9-2.2-2.6,9.7-8.2-12.5,4.8-2.4-2.8,7-11.4L73,151.5l-2.2-2.6L83.7,138Z"/><path class="a" d="M106.9,179.5l7.1-15.4,3.3,1.5L110.2,181Z"/><path class="a" d="M141.2,176l-.2,12.4h-3.5l.3-16.9h4.6l6.5,12.7.2-12.6h3.4l-.2,16.9h-4.4Z"/><path class="a" d="M184.5,161.3l1.3,2.7-4.2,2a12.1,12.1,0,0,0-2.3,1.4,2.8,2.8,0,0,0-.8,1.5,2,2,0,0,0,0,1.1,5.8,5.8,0,0,0,.5,1.7l8.5-4.1,1.4,2.7-8.6,4.1a4.2,4.2,0,0,0,2.5,2.2,6,6,0,0,0,3.7-.9l4-1.9,1.4,2.7-4.3,2a15.8,15.8,0,0,1-3.1,1.3,5.8,5.8,0,0,1-4.1-.3,9.6,9.6,0,0,1-4.5-4.8,8.8,8.8,0,0,1-.5-7.4,6.2,6.2,0,0,1,1.2-1.9,12.5,12.5,0,0,1,2.4-1.5Z"/><path class="a" d="M211,151.9l5.1,3.9-2.2,2.8-13.4-10.2,5-6.6c1.4-1.9,2.6-3,3.7-3.3a3.9,3.9,0,0,1,2.1-.3,5.1,5.1,0,0,1,2.1,1,4.8,4.8,0,0,1,2.2,3.2,4.6,4.6,0,0,1-.2,2.3,4.8,4.8,0,0,1,1.5-.7,2.2,2.2,0,0,1,1.4-.1,3.4,3.4,0,0,1,1.2.4,5.6,5.6,0,0,1,1.5.8,7.2,7.2,0,0,0,2.3,1.2l-2.5,3.2a10.8,10.8,0,0,1-2.1-1.1,9.3,9.3,0,0,0-2.1-1,3.2,3.2,0,0,0-1.7.2,6.5,6.5,0,0,0-2.2,2Zm-2.4-1.8,3-4a3.6,3.6,0,0,0,.8-1.7,2.1,2.1,0,0,0-1-1.8,2,2,0,0,0-2.4-.3,6.5,6.5,0,0,0-.9,1.1l-3.1,4Z"/><path class="a" d="M61,64.9l16.1,5L76,73.3l-6.7-2.1-1.9,6.3,6.7,2L73,83,56.9,77.9l1-3.4,6.6,2.1,2-6.3-6.6-2Z"/><path class="a" d="M87,52.5,80,35.6l2.9-2.9,16.9,7-3,3-3.9-1.6-4.5,4.5L90,49.5ZM84.4,37l2.4,5.9,3.4-3.4Z"/><path class="a" d="M117.6,11.9l7.6,11.6L126,9.6l5-1.3,4.5,16.3-3.3.9-3.4-12.3-.9,13.4-3.6,1L117,16.5l3.3,12.2-3.3.9-4.4-16.3Z"/><path class="a" d="M166.6,9.9l.4,13.8,7.9-11.5,5,1.5-4.6,16.2L172,29l3.5-12.2-7.7,11-3.6-1.1-.5-13.3-3.5,12.2-3.3-.9,4.7-16.3Z"/><path class="a" d="M214.4,38.5l-2.1,2.1-3.4-3.3a12,12,0,0,0-2-1.7,3.3,3.3,0,0,0-1.7-.2,2,2,0,0,0-1.1.3,7.9,7.9,0,0,0-1.4,1.1l6.8,6.6-2.1,2.2-6.8-6.7a4.5,4.5,0,0,0-1.2,3.1,6.1,6.1,0,0,0,2,3.2l3.2,3.2-2.1,2.1-3.3-3.3a15.7,15.7,0,0,1-2.2-2.5,5.9,5.9,0,0,1-1.2-4,9.9,9.9,0,0,1,3-5.8,9,9,0,0,1,6.8-3,4,4,0,0,1,2.2.6,9.5,9.5,0,0,1,2.3,1.7Z"/><path class="a" d="M221,69.7l-6.1,2.1-1.1-3.5,16-5.2,2.6,7.8c.7,2.2,1,3.9.7,5a5.2,5.2,0,0,1-1.1,1.9,6.2,6.2,0,0,1-1.9,1.2,5.2,5.2,0,0,1-3.9,0,4.6,4.6,0,0,1-1.8-1.6,7.2,7.2,0,0,1-.2,1.7,4.2,4.2,0,0,1-.8,1.2l-1,.8-1.5.7L218.6,83l-1.3-3.8,2.2-1.1a7,7,0,0,0,2-1.2,2.8,2.8,0,0,0,.8-1.5,6.5,6.5,0,0,0-.4-2.9Zm2.8-.9,1.6,4.8a4.5,4.5,0,0,0,.9,1.6,2.2,2.2,0,0,0,2.1.1,1.8,1.8,0,0,0,1.5-1.7,5,5,0,0,0-.3-1.4l-1.5-4.8Z"/><polygon class="a" points="67.1 96.5 56.2 114.2 63.5 114.2 60.9 128.8 74 108.9 67 108.9 67.1 96.5"/><path class="a" d="M145.7,195.7A97.2,97.2,0,1,1,243,98.5,97.3,97.3,0,0,1,145.7,195.7Zm0-191.9a94.7,94.7,0,1,0,94.7,94.7A94.7,94.7,0,0,0,145.7,3.8Z"/><path class="a" d="M145.7,168.9a70.4,70.4,0,1,1,70.4-70.4A70.4,70.4,0,0,1,145.7,168.9Zm0-138.2a67.8,67.8,0,1,0,67.9,67.8A67.9,67.9,0,0,0,145.7,30.7Z"/><path d="M61,64.9l16.1,5L76,73.3l-6.7-2.1-1.9,6.3,6.7,2L73,83,56.9,77.9l1-3.4,6.6,2.1,2-6.3-6.6-2Z"/><path d="M87,52.5,80,35.6l2.9-2.9,16.9,7-3,3-3.9-1.6-4.5,4.5L90,49.5ZM84.4,37l2.4,5.9,3.4-3.4Z"/><path d="M117.6,11.9l7.6,11.6L126,9.6l5-1.3,4.5,16.3-3.3.9-3.4-12.3-.9,13.4-3.6,1L117,16.5l3.3,12.2-3.3.9-4.4-16.3Z"/><path d="M166.6,9.9l.4,13.8,7.9-11.5,5,1.5-4.6,16.2L172,29l3.5-12.2-7.7,11-3.6-1.1-.5-13.3-3.5,12.2-3.3-.9,4.7-16.3Z"/><path d="M214.4,38.5l-2.1,2.1-3.4-3.3a12,12,0,0,0-2-1.7,3.3,3.3,0,0,0-1.7-.2,2,2,0,0,0-1.1.3,7.9,7.9,0,0,0-1.4,1.1l6.8,6.6-2.1,2.2-6.8-6.7a4.5,4.5,0,0,0-1.2,3.1,6.1,6.1,0,0,0,2,3.2l3.2,3.2-2.1,2.1-3.3-3.3a15.7,15.7,0,0,1-2.2-2.5,5.9,5.9,0,0,1-1.2-4,9.9,9.9,0,0,1,3-5.8,9,9,0,0,1,6.8-3,4,4,0,0,1,2.2.6,9.5,9.5,0,0,1,2.3,1.7Z"/><path d="M221,69.7l-6.1,2.1-1.1-3.5,16-5.2,2.6,7.8c.7,2.2,1,3.9.7,5a5.2,5.2,0,0,1-1.1,1.9,6.2,6.2,0,0,1-1.9,1.2,5.2,5.2,0,0,1-3.9,0,4.6,4.6,0,0,1-1.8-1.6,7.2,7.2,0,0,1-.2,1.7,4.2,4.2,0,0,1-.8,1.2l-1,.8-1.5.7L218.6,83l-1.3-3.8,2.2-1.1a7,7,0,0,0,2-1.2,2.8,2.8,0,0,0,.8-1.5,6.5,6.5,0,0,0-.4-2.9Zm2.8-.9,1.6,4.8a4.5,4.5,0,0,0,.9,1.6,2.2,2.2,0,0,0,2.1.1,1.8,1.8,0,0,0,1.5-1.7,5,5,0,0,0-.3-1.4l-1.5-4.8Z"/><polygon class="a" points="228 96.5 217.2 114.2 224.4 114.2 221.8 128.8 234.9 108.9 227.9 108.9 228 96.5"/><path class="b" d="M146.9,195.7a97.2,97.2,0,1,1,97.2-97.2A97.3,97.3,0,0,1,146.9,195.7Zm0-191.9a94.7,94.7,0,1,0,94.7,94.7A94.8,94.8,0,0,0,146.9,3.8Z"/><path class="c" d="M146.9,168.5a70,70,0,1,1,70-70A70.1,70.1,0,0,1,146.9,168.5Zm0-138.2a68.2,68.2,0,1,0,68.2,68.2A68.3,68.3,0,0,0,146.9,30.3Z"/><path class="d" d="M88.3,142l-7.4,11.7,13-5.1,3.4,4-13,10.9-2.2-2.6,9.7-8.2-12.5,4.8-2.4-2.8,7-11.4-9.7,8.2L72,148.9,84.9,138Z"/><path class="d" d="M108.1,179.5l7.1-15.4,3.3,1.5L111.4,181Z"/><path class="d" d="M142.4,176l-.2,12.4h-3.5l.3-16.9h4.6l6.5,12.7.2-12.6h3.4l-.2,16.9h-4.4Z"/><path class="d" d="M185.7,161.3,187,164l-4.2,2a12.1,12.1,0,0,0-2.3,1.4,2.8,2.8,0,0,0-.8,1.5,2,2,0,0,0,0,1.1,5.8,5.8,0,0,0,.5,1.7l8.5-4.1,1.3,2.7-8.5,4.1a4.2,4.2,0,0,0,2.5,2.2,6,6,0,0,0,3.7-.9l4-1.9,1.4,2.7-4.3,2a15.8,15.8,0,0,1-3.1,1.3,5.8,5.8,0,0,1-4.1-.3,9.6,9.6,0,0,1-4.5-4.8,8.5,8.5,0,0,1-.5-7.4,6.2,6.2,0,0,1,1.2-1.9,12.5,12.5,0,0,1,2.4-1.5Z"/><path class="d" d="M212.2,151.9l5.1,3.9-2.2,2.8-13.5-10.2,5-6.6c1.5-1.9,2.7-3,3.8-3.3a3.9,3.9,0,0,1,2.1-.3,5.1,5.1,0,0,1,2.1,1,4.8,4.8,0,0,1,2.2,3.2,6.2,6.2,0,0,1-.2,2.3,3.4,3.4,0,0,1,1.5-.7,2.2,2.2,0,0,1,1.4-.1,3.4,3.4,0,0,1,1.2.4,5.6,5.6,0,0,1,1.5.8,8.3,8.3,0,0,0,2.2,1.2l-2.4,3.2a10.8,10.8,0,0,1-2.1-1.1,9.3,9.3,0,0,0-2.1-1,3.2,3.2,0,0,0-1.7.2,6.5,6.5,0,0,0-2.2,2Zm-2.4-1.8,3-4a3.6,3.6,0,0,0,.8-1.7,2,2,0,0,0-1.1-1.8,1.8,1.8,0,0,0-2.3-.3,6.5,6.5,0,0,0-.9,1.1l-3.1,4Z"/><path d="M62.1,64.9l16.2,5-1.1,3.4-6.7-2.1-1.9,6.3,6.7,2L74.2,83,58.1,77.9l1-3.4,6.6,2.1,2-6.3-6.6-2Z"/><path d="M88.2,52.5l-7-16.9,2.9-2.9,16.9,7-3,3-3.9-1.6-4.5,4.5,1.6,3.9ZM85.6,37,88,42.9l3.4-3.4Z"/><path d="M118.8,11.9l7.5,11.6.9-13.9,5-1.3,4.4,16.3-3.3.9L130,13.2l-.9,13.4-3.6,1-7.3-11.1,3.3,12.2-3.3.9-4.4-16.3Z"/><path d="M167.8,9.9l.4,13.8,7.9-11.5,5,1.5-4.6,16.2-3.3-.9,3.5-12.2-7.7,11-3.6-1.1-.5-13.3-3.5,12.2-3.3-.9,4.6-16.3Z"/><path d="M215.6,38.5l-2.1,2.1-3.4-3.3a12,12,0,0,0-2-1.7,3.3,3.3,0,0,0-1.7-.2,1.8,1.8,0,0,0-1.1.3,7.9,7.9,0,0,0-1.4,1.1l6.8,6.6-2.1,2.2-6.8-6.7a4.5,4.5,0,0,0-1.2,3.1,6.1,6.1,0,0,0,2,3.2l3.2,3.2-2.1,2.1-3.3-3.3a15.7,15.7,0,0,1-2.2-2.5,5.9,5.9,0,0,1-1.2-4,9.9,9.9,0,0,1,3-5.8,9,9,0,0,1,6.8-3,4,4,0,0,1,2.2.6,9.5,9.5,0,0,1,2.3,1.7Z"/><path d="M222.2,69.7l-6.1,2.1L215,68.3l16-5.2,2.6,7.8a11.3,11.3,0,0,1,.7,5,5.2,5.2,0,0,1-1.1,1.9,6.2,6.2,0,0,1-1.9,1.2,5.2,5.2,0,0,1-3.9,0,4.6,4.6,0,0,1-1.8-1.6,7.2,7.2,0,0,1-.2,1.7,4.7,4.7,0,0,1-.9,1.2l-.9.8-1.5.7L219.8,83l-1.3-3.8,2.2-1.1a7,7,0,0,0,2-1.2,2.8,2.8,0,0,0,.8-1.5,6.5,6.5,0,0,0-.4-2.9Zm2.8-.9,1.6,4.8a4.5,4.5,0,0,0,.9,1.6,2.2,2.2,0,0,0,2.1.1,1.8,1.8,0,0,0,1.5-1.7,5,5,0,0,0-.3-1.4l-1.5-4.8Z"/><path class="e" d="M62.1,64.9l16.2,5-1.1,3.4-6.7-2.1-1.9,6.3,6.7,2L74.2,83,58.1,77.9l1-3.4,6.6,2.1,2-6.3-6.6-2Z"/><path class="e" d="M88.2,52.5l-7-16.9,2.9-2.9,16.9,7-3,3-3.9-1.6-4.5,4.5,1.6,3.9ZM85.6,37,88,42.9l3.4-3.4Z"/><path class="e" d="M118.8,11.9l7.5,11.6.9-13.9,5-1.3,4.4,16.3-3.3.9L130,13.2l-.9,13.4-3.6,1-7.3-11.1,3.3,12.2-3.3.9-4.4-16.3Z"/><path class="e" d="M167.8,9.9l.4,13.8,7.9-11.5,5,1.5-4.6,16.2-3.3-.9,3.5-12.2-7.7,11-3.6-1.1-.5-13.3-3.5,12.2-3.3-.9,4.6-16.3Z"/><path class="e" d="M215.6,38.5l-2.1,2.1-3.4-3.3a12,12,0,0,0-2-1.7,3.3,3.3,0,0,0-1.7-.2,1.8,1.8,0,0,0-1.1.3,7.9,7.9,0,0,0-1.4,1.1l6.8,6.6-2.1,2.2-6.8-6.7a4.5,4.5,0,0,0-1.2,3.1,6.1,6.1,0,0,0,2,3.2l3.2,3.2-2.1,2.1-3.3-3.3a15.7,15.7,0,0,1-2.2-2.5,5.9,5.9,0,0,1-1.2-4,9.9,9.9,0,0,1,3-5.8,9,9,0,0,1,6.8-3,4,4,0,0,1,2.2.6,9.5,9.5,0,0,1,2.3,1.7Z"/><path class="e" d="M222.2,69.7l-6.1,2.1L215,68.3l16-5.2,2.6,7.8a11.3,11.3,0,0,1,.7,5,5.2,5.2,0,0,1-1.1,1.9,6.2,6.2,0,0,1-1.9,1.2,5.2,5.2,0,0,1-3.9,0,4.6,4.6,0,0,1-1.8-1.6,7.2,7.2,0,0,1-.2,1.7,4.7,4.7,0,0,1-.9,1.2l-.9.8-1.5.7L219.8,83l-1.3-3.8,2.2-1.1a7,7,0,0,0,2-1.2,2.8,2.8,0,0,0,.8-1.5,6.5,6.5,0,0,0-.4-2.9Zm2.8-.9,1.6,4.8a4.5,4.5,0,0,0,.9,1.6,2.2,2.2,0,0,0,2.1.1,1.8,1.8,0,0,0,1.5-1.7,5,5,0,0,0-.3-1.4l-1.5-4.8Z"/><polygon class="f" points="68.3 96.5 57.4 114.2 64.7 114.2 62.1 128.8 75.2 108.9 68.1 108.9 68.3 96.5"/><polygon class="f" points="229.2 96.5 218.3 114.2 225.6 114.2 223 128.8 236.1 108.9 229.1 108.9 229.2 96.5"/><polygon class="a" points="136.2 51.3 115.6 70.9 132 75.4 129.2 65.5 167.4 78.9 155.5 73.2 155.3 67.2 144.9 53.4 136.2 51.3"/><path class="a" d="M147.8,90.2l2.4-2.5-2.4-3,6.4-6.6-14.1-2.9,2.7,15.7L107.5,69.3l3.9,5.3-3.9,3.8,1.9,10.8,12.5,12.5h9.8l4.5-5,2.4,2.9,2.3-2.2,37.7,47.8,7-8.3ZM109.1,79.1l4.9-4.6,3.3,2.5-5.6,5.2Zm6.8,7.7,5.5-4.5-4.7,5.3Zm3.4,4-.8-.9,6.3-5.3Zm3.5,3.4-.8-1,6.7-5.9Z"/><polygon class="g" points="137.9 51.3 117.4 70.9 133.8 75.4 131 65.5 169.1 78.9 157.3 73.2 157 67.2 146.7 53.4 137.9 51.3"/><path class="h" d="M149.5,90.2l2.4-2.5-2.4-3,6.5-6.6-14.2-2.9,2.8,15.7L109.2,69.3l3.9,5.3-3.9,3.8,2,10.8,12.4,12.5h9.9l4.4-5,2.4,2.9,2.3-2.2,37.7,47.8,7-8.3ZM110.8,79.1l4.9-4.6L119,77l-5.6,5.2Zm6.8,7.7,5.5-4.5-4.6,5.3Zm3.4,4-.8-.9,6.3-5.3Zm3.6,3.4-.9-1,6.7-5.9Z"/><path class="e" d="M330.3,62.4v77H314V107.5H284.2v31.9H267.8v-77h16.4V93.8H314V62.4Z"/><path class="e" d="M338.5,139.4l31.8-77h18.8l31.9,77H401.8l-7.5-17.8H365.1l-7.5,17.8ZM379.8,81l-11,26.9h21.9Z"/><path class="e" d="M452.8,62.4,472,122.5l20.2-60.1h23.9v77H500.5V81.7l-20.1,57.7H463.6L444.5,81.7v57.7H428.9v-77Z"/><path class="e" d="M555.4,62.4l19.2,60.1,20.2-60.1h23.9v77H603.1V81.7L583,139.4H566.2L547.1,81.7v57.7H531.5v-77Z"/><path class="e" d="M692.2,62.4V76.1H670.8c-5.5,0-9.5.4-12.1,1.2a13.9,13.9,0,0,0-8.7,9.1,50.6,50.6,0,0,0-1.1,7.9h43.3V108H648.9c.6,6.6,2.6,11.2,5.9,13.8s8.9,3.8,16.8,3.8h20.6v13.8H670.8a97.5,97.5,0,0,1-15.2-1.1,26.2,26.2,0,0,1-16.5-9.1c-5.8-7.1-8.8-16.6-8.8-28.7s4.1-23.8,12.4-31.3a24.6,24.6,0,0,1,9-5.3,44.7,44.7,0,0,1,12.9-1.5Z"/><path class="e" d="M721.5,110.2v29.2H705.1v-77h37.6q16.2,0,22.5,4.2a17.7,17.7,0,0,1,6.8,7.3,21.1,21.1,0,0,1,2.4,10c0,7.3-1.9,12.9-5.6,16.9a22.2,22.2,0,0,1-9.1,5.5,22.5,22.5,0,0,1,6.8,3.4,16.2,16.2,0,0,1,4.2,5.2,26.9,26.9,0,0,1,2,5.3,60,60,0,0,1,1,7.5c.4,5.6,1,9.4,1.8,11.7H757.2c-.6-1.8-1.2-5.4-1.8-11s-1.1-7.9-2.3-10.3a13.8,13.8,0,0,0-5.4-5.6c-3-1.6-7.3-2.4-13-2.3Zm0-13.8h23c3.8,0,6.5-.5,8.2-1.7s3.7-4.6,3.7-8.9-1.9-7.7-5.6-9a22.7,22.7,0,0,0-6.3-.7h-23Z"/></svg>